<svg width="29" height="32" viewBox="0 0 29 32" fill="none" xmlns="http://www.w3.org/2000/svg">
<path d="M14.5 2C15.5716 2 16.5993 2.42143 17.357 3.17157C18.1147 3.92172 18.5404 4.93913 18.5404 6V10H10.4596V6C10.4596 4.93913 10.8853 3.92172 11.643 3.17157C12.4007 2.42143 13.4284 2 14.5 2ZM20.5606 10V6C20.5606 4.4087 19.9221 2.88258 18.7855 1.75736C17.6489 0.632141 16.1074 0 14.5 0C12.8926 0 11.3511 0.632141 10.2145 1.75736C9.07794 2.88258 8.43942 4.4087 8.43942 6V10H5.1263C4.4008 10.0002 3.69943 10.258 3.14966 10.7267C2.59989 11.1953 2.23822 11.8437 2.13036 12.554L0.0556195 26.26C-0.0518795 26.9712 -0.00316909 27.6969 0.198428 28.3878C0.400025 29.0786 0.749764 29.7182 1.22379 30.2631C1.69781 30.8079 2.28497 31.2451 2.94519 31.5449C3.60542 31.8446 4.32319 31.9999 5.04954 32H23.9484C24.675 32.0002 25.393 31.8451 26.0534 31.5455C26.7139 31.2459 27.3013 30.8087 27.7756 30.2638C28.2498 29.719 28.5997 29.0792 28.8014 28.3882C29.0031 27.6973 29.0519 26.9713 28.9444 26.26L26.8676 12.554C26.7598 11.8441 26.3984 11.196 25.8491 10.7273C25.2997 10.2587 24.5989 10.0006 23.8737 10H20.5606ZM18.5404 12V15C18.5404 15.2652 18.6468 15.5196 18.8362 15.7071C19.0257 15.8946 19.2826 16 19.5505 16C19.8184 16 20.0753 15.8946 20.2647 15.7071C20.4542 15.5196 20.5606 15.2652 20.5606 15V12H23.8717C24.1135 12.0002 24.3472 12.0864 24.5303 12.2427C24.7135 12.399 24.8339 12.6152 24.8697 12.852L26.9464 26.554C27.0112 26.9808 26.9822 27.4165 26.8615 27.8312C26.7407 28.2459 26.5309 28.6299 26.2465 28.957C25.9621 29.2842 25.6098 29.5467 25.2135 29.7267C24.8173 29.9067 24.3864 29.9999 23.9505 30H5.04954C4.61357 29.9999 4.18275 29.9067 3.7865 29.7267C3.39025 29.5467 3.03789 29.2842 2.75349 28.957C2.46908 28.6299 2.25933 28.2459 2.13854 27.8312C2.01775 27.4165 1.98878 26.9808 2.05359 26.554L4.13035 12.852C4.16609 12.6156 4.28619 12.3996 4.4689 12.2433C4.65161 12.087 4.88483 12.0007 5.1263 12H8.43942V15C8.43942 15.2652 8.54584 15.5196 8.73527 15.7071C8.9247 15.8946 9.18162 16 9.44952 16C9.71741 16 9.97433 15.8946 10.1638 15.7071C10.3532 15.5196 10.4596 15.2652 10.4596 15V12H18.5404Z" fill="white"/>
</svg>
