<svg width="338" height="338" viewBox="0 0 338 338" fill="none" xmlns="http://www.w3.org/2000/svg">
<path d="M11.267 0C8.27882 0 5.41301 1.18702 3.30003 3.29993C1.18706 5.41284 0 8.27856 0 11.2667C0 14.2548 1.18706 17.1205 3.30003 19.2334C5.41301 21.3463 8.27882 22.5333 11.267 22.5333H36.2798L45.3159 58.7444L79.0719 238.673C79.5552 241.255 80.9255 243.587 82.9457 245.265C84.966 246.944 87.5094 247.864 90.1361 247.867H112.67C100.717 247.867 89.2541 252.615 80.8022 261.066C72.3503 269.518 67.6021 280.981 67.6021 292.933C67.6021 304.886 72.3503 316.349 80.8022 324.8C89.2541 333.252 100.717 338 112.67 338C124.623 338 136.086 333.252 144.538 324.8C152.99 316.349 157.738 304.886 157.738 292.933C157.738 280.981 152.99 269.518 144.538 261.066C136.086 252.615 124.623 247.867 112.67 247.867H270.408C258.456 247.867 246.992 252.615 238.54 261.066C230.089 269.518 225.34 280.981 225.34 292.933C225.34 304.886 230.089 316.349 238.54 324.8C246.992 333.252 258.456 338 270.408 338C282.361 338 293.824 333.252 302.276 324.8C310.728 316.349 315.476 304.886 315.476 292.933C315.476 280.981 310.728 269.518 302.276 261.066C293.824 252.615 282.361 247.867 270.408 247.867H292.942C295.569 247.864 298.112 246.944 300.133 245.265C302.153 243.587 303.523 241.255 304.007 238.673L337.808 58.4064C338.112 56.7803 338.055 55.1072 337.639 53.5058C337.224 51.9044 336.461 50.4141 335.405 49.1408C334.349 47.8674 333.026 46.8423 331.529 46.1381C330.032 45.434 328.398 45.0682 326.743 45.0667H65.1233L55.9971 8.54013C55.3889 6.10166 53.9828 3.93655 52.0025 2.38909C50.0222 0.841635 47.5813 0.000694285 45.0681 0H11.267ZM135.204 292.933C135.204 298.91 132.83 304.641 128.604 308.867C124.378 313.093 118.647 315.467 112.67 315.467C106.694 315.467 100.962 313.093 96.7362 308.867C92.5102 304.641 90.1361 298.91 90.1361 292.933C90.1361 286.957 92.5102 281.226 96.7362 277C100.962 272.774 106.694 270.4 112.67 270.4C118.647 270.4 124.378 272.774 128.604 277C132.83 281.226 135.204 286.957 135.204 292.933ZM292.942 292.933C292.942 298.91 290.568 304.641 286.342 308.867C282.116 313.093 276.385 315.467 270.408 315.467C264.432 315.467 258.7 313.093 254.474 308.867C250.248 304.641 247.874 298.91 247.874 292.933C247.874 286.957 250.248 281.226 254.474 277C258.7 272.774 264.432 270.4 270.408 270.4C276.385 270.4 282.116 272.774 286.342 277C290.568 281.226 292.942 286.957 292.942 292.933ZM255.851 120.643L188.249 188.243C187.203 189.293 185.959 190.125 184.591 190.693C183.222 191.261 181.754 191.553 180.272 191.553C178.79 191.553 177.323 191.261 175.954 190.693C174.585 190.125 173.342 189.293 172.295 188.243L138.494 154.443C137.447 153.396 136.616 152.152 136.049 150.784C135.482 149.415 135.19 147.948 135.19 146.467C135.19 144.985 135.482 143.518 136.049 142.15C136.616 140.781 137.447 139.537 138.494 138.49C139.542 137.442 140.785 136.611 142.154 136.044C143.523 135.478 144.99 135.186 146.471 135.186C147.953 135.186 149.42 135.478 150.788 136.044C152.157 136.611 153.401 137.442 154.448 138.49L180.272 164.336L239.897 104.69C240.945 103.642 242.188 102.811 243.557 102.244C244.926 101.678 246.393 101.386 247.874 101.386C249.356 101.386 250.823 101.678 252.191 102.244C253.56 102.811 254.804 103.642 255.851 104.69C256.899 105.737 257.73 106.981 258.297 108.35C258.864 109.718 259.156 111.185 259.156 112.667C259.156 114.148 258.864 115.615 258.297 116.984C257.73 118.352 256.899 119.596 255.851 120.643Z" fill="#3FF773"/>
</svg>
