<svg width="509" height="509" viewBox="0 0 509 509" fill="none" xmlns="http://www.w3.org/2000/svg">
<path d="M10.6789 10.6789C14.0555 7.29385 18.0666 4.60816 22.4827 2.77569C26.8988 0.943217 31.633 0 36.4142 0C41.1954 0 45.9296 0.943217 50.3457 2.77569C54.7617 4.60816 58.7729 7.29385 62.1494 10.6789L254.51 203.112L446.87 10.6789C450.249 7.29933 454.261 4.61848 458.677 2.78945C463.093 0.960422 467.825 0.0190313 472.605 0.0190313C477.384 0.0190313 482.117 0.960422 486.533 2.78945C490.948 4.61848 494.961 7.29933 498.34 10.6789C501.72 14.0585 504.401 18.0707 506.23 22.4864C508.059 26.902 509 31.6347 509 36.4142C509 41.1937 508.059 45.9264 506.23 50.342C504.401 54.7577 501.72 58.7698 498.34 62.1494L305.907 254.51L498.34 446.87C501.72 450.249 504.401 454.261 506.23 458.677C508.059 463.093 509 467.825 509 472.605C509 477.384 508.059 482.117 506.23 486.533C504.401 490.948 501.72 494.961 498.34 498.34C494.961 501.72 490.948 504.401 486.533 506.23C482.117 508.059 477.384 509 472.605 509C467.825 509 463.093 508.059 458.677 506.23C454.261 504.401 450.249 501.72 446.87 498.34L254.51 305.907L62.1494 498.34C58.7698 501.72 54.7577 504.401 50.342 506.23C45.9264 508.059 41.1937 509 36.4142 509C31.6347 509 26.902 508.059 22.4864 506.23C18.0707 504.401 14.0585 501.72 10.6789 498.34C7.29933 494.961 4.61848 490.948 2.78945 486.533C0.960422 482.117 0.0190313 477.384 0.0190313 472.605C0.0190313 467.825 0.960422 463.093 2.78945 458.677C4.61848 454.261 7.29933 450.249 10.6789 446.87L203.112 254.51L10.6789 62.1494C7.29385 58.7729 4.60816 54.7617 2.77569 50.3457C0.943217 45.9296 0 41.1954 0 36.4142C0 31.633 0.943217 26.8988 2.77569 22.4827C4.60816 18.0666 7.29385 14.0555 10.6789 10.6789Z" fill="#AA2804"/>
</svg>
